<svg width="1200" height="780" viewBox="0 0 1200 780" fill="none" xmlns="http://www.w3.org/2000/svg">
  <rect width="1200" height="780" rx="32" fill="#0F172A"/>
  <rect x="40" y="36" width="1120" height="60" rx="14" fill="#111827" stroke="#1F2937"/>
  <rect x="64" y="56" width="56" height="20" rx="10" fill="#16A6FB" opacity="0.9"/>
  <rect x="130" y="56" width="96" height="20" rx="10" fill="#6366F1" opacity="0.8"/>
  <rect x="236" y="56" width="120" height="20" rx="10" fill="#334155"/>
  <rect x="40" y="120" width="1120" height="620" rx="20" fill="#0B1220" stroke="#1E293B"/>
  <rect x="72" y="154" width="240" height="120" rx="18" fill="#111827" stroke="#1E293B"/>
  <rect x="88" y="182" width="208" height="16" rx="8" fill="#111827" stroke="#1E293B"/>
  <rect x="88" y="214" width="132" height="16" rx="8" fill="#16A6FB"/>
  <rect x="88" y="246" width="96" height="16" rx="8" fill="#6366F1" opacity="0.8"/>
  <rect x="332" y="154" width="396" height="250" rx="18" fill="#0F172A" stroke="#1E293B"/>
  <rect x="356" y="182" width="348" height="12" rx="6" fill="#1E293B"/>
  <rect x="356" y="210" width="172" height="12" rx="6" fill="#16A6FB"/>
  <rect x="356" y="238" width="260" height="180" rx="12" fill="url(#paint0_linear)"/>
  <rect x="760" y="154" width="340" height="120" rx="18" fill="#0F172A" stroke="#1E293B"/>
  <rect x="784" y="182" width="140" height="14" rx="7" fill="#16A6FB"/>
  <rect x="784" y="214" width="260" height="14" rx="7" fill="#1E293B"/>
  <rect x="784" y="246" width="190" height="14" rx="7" fill="#6366F1" opacity="0.8"/>
  <rect x="72" y="306" width="240" height="150" rx="18" fill="#0F172A" stroke="#1E293B"/>
  <rect x="96" y="336" width="180" height="16" rx="8" fill="#1E293B"/>
  <rect x="96" y="370" width="120" height="16" rx="8" fill="#16A6FB"/>
  <rect x="96" y="404" width="160" height="16" rx="8" fill="#6366F1" opacity="0.7"/>
  <rect x="72" y="484" width="1028" height="220" rx="18" fill="#0F172A" stroke="#1E293B"/>
  <rect x="100" y="520" width="296" height="164" rx="14" fill="#0B1220" stroke="#1E293B"/>
  <rect x="128" y="548" width="84" height="12" rx="6" fill="#1E293B"/>
  <rect x="128" y="576" width="220" height="12" rx="6" fill="#16A6FB"/>
  <rect x="432" y="520" width="292" height="164" rx="14" fill="#0B1220" stroke="#1E293B"/>
  <rect x="460" y="548" width="180" height="12" rx="6" fill="#1E293B"/>
  <rect x="460" y="576" width="120" height="12" rx="6" fill="#6366F1" opacity="0.8"/>
  <rect x="732" y="520" width="296" height="164" rx="14" fill="#0B1220" stroke="#1E293B"/>
  <rect x="760" y="548" width="128" height="12" rx="6" fill="#1E293B"/>
  <rect x="760" y="576" width="172" height="12" rx="6" fill="#16A6FB" opacity="0.9"/>
  <circle cx="1020" cy="210" r="12" fill="#22C55E"/>
  <defs>
    <linearGradient id="paint0_linear" x1="356" y1="328" x2="614" y2="178" gradientUnits="userSpaceOnUse">
      <stop stop-color="#16A6FB" stop-opacity="0.4"/>
      <stop offset="1" stop-color="#6366F1" stop-opacity="0.8"/>
    </linearGradient>
  </defs>
</svg>
